HIERARCHY
ROOT Hips
{
	OFFSET 0.00000 0.00000 0.00000
	CHANNELS 6 Xposition Yposition Zposition Zrotation Yrotation Xrotation 
	JOINT LHipJoint
	{
		OFFSET 0 0 0
		CHANNELS 3 Zrotation Yrotation Xrotation
		JOINT LeftHip
		{
			OFFSET 1.38280 -1.96574 0.54427
			CHANNELS 3 Zrotation Yrotation Xrotation
			JOINT LeftKnee
			{
				OFFSET 2.72096 -7.47578 0.00000
				CHANNELS 3 Zrotation Yrotation Xrotation
				JOINT LeftAnkle
				{
					OFFSET 2.73041 -7.50176 0.00000
					CHANNELS 3 Zrotation Yrotation Xrotation
					JOINT LeftToe
					{
						OFFSET 0.16150 -0.44371 2.18031
						CHANNELS 3 Zrotation Yrotation Xrotation
						End Site
						{
							OFFSET 0.00000 -0.00000 1.12127
						}
					}
				}
			}
		}
	}
	JOINT RHipJoint
	{
		OFFSET 0 0 0
		CHANNELS 3 Zrotation Yrotation Xrotation
		JOINT RightHip
		{
			OFFSET -1.57224 -1.96575 0.54427
			CHANNELS 3 Zrotation Yrotation Xrotation
			JOINT RightKnee
			{
				OFFSET -2.95935 -8.13076 0.00000
				CHANNELS 3 Zrotation Yrotation Xrotation
				JOINT RightAnkle
				{
					OFFSET -2.52345 -6.93311 0.00000
					CHANNELS 3 Zrotation Yrotation Xrotation
					JOINT RightToe
					{
						OFFSET -0.04475 -0.10171 1.86688
						CHANNELS 3 Zrotation Yrotation Xrotation
						End Site
						{
							OFFSET -0.00000 -0.00000 0.95157
						}
					}
				}
			}
		}
	}
	JOINT lowerback
	{
		OFFSET 0 0 0
		CHANNELS 3 Zrotation Yrotation Xrotation
		JOINT Chest
		{
			OFFSET 0.00669 2.07367 0.09104
			CHANNELS 3 Zrotation Yrotation Xrotation
			JOINT Chest2
			{
				OFFSET -0.00664 2.06198 -0.04732
				CHANNELS 3 Zrotation Yrotation Xrotation
				JOINT lowerneck
				{
					OFFSET 0 0 0
					CHANNELS 3 Zrotation Yrotation Xrotation
					JOINT Neck
					{
						OFFSET -0.00021 1.49948 0.16345
						CHANNELS 3 Zrotation Yrotation Xrotation
						JOINT Head
						{
							OFFSET 0.06080 1.50567 -0.26702
							CHANNELS 3 Zrotation Yrotation Xrotation
							End Site
							{
								OFFSET 0.01726 1.56470 -0.11854
							}
						}
					}
				}
				JOINT LeftCollar
				{
					OFFSET 0 0 0
					CHANNELS 3 Zrotation Yrotation Xrotation
					JOINT LeftShoulder
					{
						OFFSET 3.14993 0.82932 -0.22488
CHANNELS 3 Zrotation Xrotation Yrotation
						JOINT LeftElbow
						{
OFFSET 0 -5.682360 -0.000000
CHANNELS 3 Zrotation Xrotation Yrotation
							JOINT LeftWrist
							{
OFFSET 0 -3.171120 0.000000
CHANNELS 3 Zrotation Xrotation Yrotation
								JOINT lhand
								{
									OFFSET 0 0 0
CHANNELS 3 Zrotation Xrotation Yrotation
									JOINT LFingers
									{
OFFSET 0 -0.632690 0.000000
CHANNELS 3 Zrotation Xrotation Yrotation
										End Site
										{
OFFSET 0 -0.510090 0.000000
										}
									}
								}
								JOINT LThumb
								{
OFFSET 0 0.000000 0.000000
CHANNELS 3 Zrotation Xrotation Yrotation
									End Site
									{
OFFSET 0 -0.517880 0.517880
									}
								}
							}
						}
					}
				}
				JOINT RightCollar
				{
					OFFSET 0 0 0
					CHANNELS 3 Zrotation Yrotation Xrotation
					JOINT RightShoulder
					{
						OFFSET -3.10571 0.91279 -0.33334
CHANNELS 3 Zrotation Xrotation Yrotation
						JOINT RightElbow
						{
OFFSET 0 -5.871200 -0.000000
CHANNELS 3 Zrotation Xrotation Yrotation
							JOINT RightWrist
							{
OFFSET 0 -3.375890 0.000000
CHANNELS 3 Zrotation Xrotation Yrotation
								JOINT rhand
								{
									OFFSET 0 0 0
CHANNELS 3 Zrotation Xrotation Yrotation
									JOINT RFingers
									{
OFFSET 0 -0.603260 0.000000
CHANNELS 3 Zrotation Xrotation Yrotation
										End Site
										{
OFFSET 0 -0.486360 0.000000
										}
									}
								}
								JOINT RThumb
								{
OFFSET 0 0.000000 0.000000
CHANNELS 3 Zrotation Xrotation Yrotation
									End Site
									{
OFFSET 0 -0.493790 0.493790
									}
								}
							}
						}
					}
				}
			}
		}
	}
}
MOTION
Frames: 10
Frame Time: 0.008333333333333333
-10.971200 18.372600 0.940600 -5.729500 76.231900 3.943800 0.000000 0.000000 0.000000 -19.430500 -6.697300 -9.052500 1.825600 8.493000 24.221800 2.192100 -5.722200 -26.800800 0.725700 -5.443000 -15.176600 0.000000 0.000000 0.000000 21.711600 11.480000 -20.453600 -2.654500 -10.113500 29.345000 0.205700 8.020700 3.348200 -6.239800 -14.656700 45.936500 -1.115500 -0.581500 -7.354700 1.300900 -0.743500 2.816800 1.893400 -0.445300 7.118700 -3.752800 -1.784100 -17.678900 3.483800 -2.131000 22.961400 1.582100 -0.819000 10.348900 0.000000 -0.000000 0.000000 4.593100 -1.871800 -27.843000 17.455400 -27.454200 4.295200 15.165700 -3.123500 -32.695300 0.000000 0.000000 0.000000 -7.125000 0.000000 0.000000 -20.677900 62.427800 8.962000 0.000000 -0.000000 0.000000 1.179800 -0.488100 -4.605200 -17.168700 -27.079600 -4.163800 -28.030300 4.207600 -30.635600 0.000000 0.000000 0.000000 7.125000 0.000000 -0.000000 1.857900 -3.863500 1.979900
-10.671642 18.372895 1.276867 -1.212382 77.748988 8.372388 0.000000 0.000000 0.000000 -19.085798 -1.737838 -14.137725 2.985017 10.670759 31.177410 1.420977 -8.111108 -21.326966 1.411615 -7.514538 -21.248814 0.000000 0.000000 0.000000 21.690102 10.256090 -19.427412 -2.719220 -10.225935 29.711715 0.309228 9.802631 3.657004 -6.245588 -14.662189 45.959353 -0.698046 -0.498556 -7.154341 1.710797 -0.696851 2.573795 2.095278 -0.408375 6.743360 -3.692091 -2.002376 -17.393396 2.580508 -2.238061 21.596899 1.226321 -0.984051 9.799446 0.000000 0.000000 0.000000 3.472219 -0.127055 -28.772847 17.897110 -28.025142 4.500752 15.378013 -3.137972 -32.956124 0.000000 0.000000 0.000000 -7.125000 0.000000 0.000000 -20.680217 62.723366 9.107079 0.000000 0.000000 0.000000 2.376824 -0.978438 -9.539171 -13.422123 -21.902497 -2.608597 -31.379161 5.114316 -30.610820 0.000000 0.000000 0.000000 7.125000 0.000000 0.000000 -0.040522 -4.742803 -0.043733
-10.381662 18.371506 1.573408 2.401112 78.643077 12.033224 0.000000 0.000000 0.000000 -18.370466 -1.166591 -21.159154 5.472496 13.896821 42.825810 1.219751 -5.433602 -19.785754 2.651019 -10.107507 -29.325475 0.000000 0.000000 0.000000 21.931843 9.397146 -18.380896 -2.695732 -10.185381 29.579012 0.421633 11.433853 3.577761 -6.123933 -14.547336 45.476933 0.047733 0.023752 -6.978896 1.945737 -0.077927 2.418991 1.998618 -0.073740 6.450594 -3.444074 -2.281090 -17.556164 1.965001 -2.550306 20.494199 0.922343 -1.187609 9.440327 0.000000 0.000000 0.000000 2.542611 1.045012 -29.974918 18.638558 -28.967049 4.854574 14.363172 -2.755116 -32.697618 0.000000 0.000000 0.000000 -7.125000 0.000000 0.000000 -21.552035 62.226427 9.257108 0.000000 0.000000 0.000000 1.639815 0.167048 -6.189734 -13.738437 -22.359457 -2.727782 -32.579552 3.501611 -31.958737 0.000000 0.000000 0.000000 7.125000 0.000000 0.000000 -0.425664 -6.534546 -0.471288
-10.051887 18.379306 1.831948 5.016157 78.441544 14.703526 0.000000 0.000000 0.000000 -17.839952 -3.322971 -27.476021 7.598840 15.816069 51.104407 1.357147 -1.385878 -21.619833 1.918602 -8.694352 -24.843713 0.000000 0.000000 0.000000 22.166139 9.542865 -16.517215 -2.550014 -9.928345 28.744899 0.526246 12.802222 3.269675 -6.045637 -14.472436 45.164649 0.652247 0.599073 -7.084248 2.009612 0.630463 2.414535 1.815062 0.298988 6.487422 -2.977282 -2.221565 -17.541041 1.675601 -2.539452 19.324070 0.745096 -1.187979 9.019774 0.000000 0.000000 0.000000 1.372609 2.204392 -29.712634 19.047849 -29.478012 5.054326 17.025943 -1.739467 -32.100759 0.000000 0.000000 0.000000 -7.125000 0.000000 0.000000 -18.121762 62.345335 7.777095 0.000000 0.000000 0.000000 -0.758155 0.544803 0.953682 -15.378659 -24.670945 -3.382418 -32.432804 0.852690 -32.431567 0.000000 0.000000 0.000000 7.125000 0.000000 0.000000 -0.240588 -6.992936 -0.268066
-9.688668 18.365587 2.080098 6.724348 77.115468 16.388105 0.000000 0.000000 0.000000 -17.840075 -5.835806 -32.001408 7.917226 16.057996 52.263960 1.296211 0.905890 -21.865564 1.863023 -8.574634 -24.473586 0.000000 0.000000 0.000000 22.339349 9.580988 -14.622469 -2.443569 -9.734558 28.121325 0.597034 13.570320 4.021729 -5.966261 -14.395562 44.846244 0.783931 0.952635 -6.941654 1.932087 1.099424 2.273450 1.712081 0.537532 6.247978 -2.513083 -1.824924 -17.569530 1.400979 -2.062872 18.709976 0.635236 -0.965769 8.793110 0.000000 0.000000 0.000000 0.456518 3.804026 -28.158692 18.693076 -29.035518 4.880991 19.600244 -1.006503 -31.293776 0.000000 0.000000 0.000000 -7.125000 0.000000 0.000000 -14.606452 62.227382 6.188858 0.000000 0.000000 0.000000 -3.790742 -0.816942 6.468550 -16.293289 -25.916624 -3.773270 -31.589570 0.233849 -32.597669 0.000000 0.000000 0.000000 7.125000 0.000000 0.000000 0.259601 -6.915751 0.288990
-9.278355 18.342175 2.320748 6.095838 75.284994 16.083259 0.000000 0.000000 0.000000 -18.210658 -8.133381 -35.114426 6.442010 14.843376 46.730987 1.180435 -0.091843 -20.518813 1.853228 -8.553407 -24.408156 0.000000 0.000000 0.000000 22.767918 8.851143 -13.190549 -2.293398 -9.452211 27.220365 0.586717 13.458192 6.049241 -5.987304 -14.416099 44.930813 1.012221 1.124070 -7.096483 1.816556 1.309697 2.231623 1.491836 0.651616 6.295520 -1.928453 -1.338091 -17.928096 1.097980 -1.490675 17.938807 0.505551 -0.694369 8.574444 0.000000 0.000000 0.000000 0.586163 4.994112 -27.291889 17.881520 -28.005250 4.493501 18.671340 -0.256949 -32.521974 0.000000 0.000000 0.000000 -7.125000 0.000000 0.000000 -16.633629 63.170572 7.441305 0.000000 0.000000 0.000000 -6.630191 -3.706908 10.494818 -16.804674 -26.599557 -3.999492 -30.048035 1.310817 -32.559439 0.000000 0.000000 0.000000 7.125000 0.000000 0.000000 1.101148 -6.429304 1.217775
-8.826513 18.337824 2.573127 4.746611 73.632662 14.975576 0.000000 0.000000 0.000000 -19.408990 -9.146340 -36.549064 4.005300 12.167323 36.326552 1.043014 0.558915 -19.513850 1.650902 -8.097600 -23.010969 0.000000 0.000000 0.000000 23.452048 7.710247 -10.921566 -1.949884 -8.760984 25.050423 0.490303 12.625423 7.748453 -6.021303 -14.448999 45.067214 1.189337 1.260601 -6.906554 1.648575 1.488141 2.219577 1.233361 0.749571 6.179985 -1.354025 -0.993588 -18.087325 0.941504 -1.149009 17.004051 0.399306 -0.517255 8.275759 0.000000 0.000000 0.000000 1.263061 5.342361 -27.070207 16.502865 -26.197675 3.865238 16.582871 0.142806 -33.155910 0.000000 0.000000 0.000000 -7.125000 0.000000 0.000000 -19.531235 63.221636 8.808474 0.000000 0.000000 0.000000 -8.658780 -5.971043 13.643294 -17.769881 -27.861506 -4.441194 -29.919997 0.708890 -32.216850 0.000000 0.000000 0.000000 7.125000 0.000000 0.000000 1.101775 -6.033020 1.211664
-8.321018 18.359071 2.839197 2.718082 72.001849 13.211471 0.000000 0.000000 0.000000 -21.296549 -8.741070 -36.687929 1.781711 8.395648 23.922556 0.732093 2.489275 -17.250397 1.479526 -7.685523 -21.762907 0.000000 0.000000 0.000000 24.302076 5.875985 -7.903241 -1.441365 -7.589924 21.475178 0.312069 11.162322 9.720206 -6.020261 -14.447963 45.062849 1.130621 1.295410 -6.812372 1.696570 1.538404 2.313496 1.321954 0.771323 6.221781 -1.479122 -0.658671 -18.417873 1.166510 -0.704460 16.395864 0.547832 -0.295167 8.124732 0.000000 0.000000 0.000000 1.569453 5.089691 -26.868437 15.745986 -25.174971 3.537167 15.746063 0.988665 -34.688168 0.000000 0.000000 0.000000 -7.125000 0.000000 0.000000 -21.945155 64.410371 10.556973 0.000000 0.000000 0.000000 -9.960438 -7.320151 15.786966 -19.338957 -29.837635 -5.198378 -29.419061 -1.526708 -31.695955 0.000000 0.000000 0.000000 7.125000 0.000000 0.000000 1.276473 -5.346375 1.390170
-7.745258 18.331966 3.123208 0.058760 70.346326 10.788708 0.000000 0.000000 0.000000 -21.737622 -9.642405 -35.367385 0.568276 4.827665 13.417711 0.428305 4.927919 -15.158753 1.488855 -7.708453 -21.832158 0.000000 0.000000 0.000000 25.375896 3.555370 -4.546665 -0.970315 -6.271438 17.573978 0.091386 9.090503 11.132065 -5.955102 -14.384611 44.801097 1.290991 1.478822 -6.713129 1.515050 1.779318 2.367719 1.069677 0.899564 6.229851 -1.142532 -0.344622 -18.511092 1.292695 -0.394020 15.741982 0.570758 -0.116902 7.917104 0.000000 0.000000 0.000000 2.246273 4.880024 -26.885453 16.040565 -25.575573 3.663474 16.068046 1.048297 -34.867432 0.000000 0.000000 0.000000 -7.125000 0.000000 0.000000 -21.770442 64.661585 10.595844 0.000000 0.000000 0.000000 -10.004485 -7.408679 17.040632 -20.783104 -31.574316 -5.935947 -29.105807 -2.831143 -31.329724 0.000000 0.000000 0.000000 7.125000 0.000000 0.000000 1.380526 -4.875992 1.493268
-7.080728 18.255642 3.438343 -2.326517 68.107731 8.718131 0.000000 0.000000 0.000000 -20.279009 -11.568044 -34.046568 0.288811 3.455954 9.550829 0.286184 7.490454 -15.507417 0.956272 -6.227033 -17.444518 0.000000 0.000000 0.000000 26.152385 1.551225 -1.630568 -0.741993 -5.502612 15.347885 -0.096499 7.565045 12.669953 -5.856055 -14.287457 44.401407 1.018621 1.638747 -6.810384 1.336377 2.024257 2.380571 1.068963 1.012030 6.294001 -0.914688 0.088456 -18.399808 1.332622 0.126194 15.225414 0.606669 0.145718 7.719131 0.000000 0.000000 0.000000 2.537596 4.529400 -26.727822 16.575476 -26.294635 3.897378 16.822499 0.846362 -34.834834 0.000000 0.000000 0.000000 -7.125000 0.000000 0.000000 -20.886797 64.839732 10.233598 0.000000 0.000000 0.000000 -9.494386 -6.544549 18.378996 -21.392974 -32.284156 -6.258532 -28.826962 -2.747975 -31.740483 0.000000 0.000000 0.000000 7.125000 0.000000 0.000000 1.616147 -5.233144 1.757487
